<svg width="20" height="20" viewBox="0 0 20 20" fill="none" xmlns="http://www.w3.org/2000/svg">
<rect width="20" height="20" rx="10" fill="transparent"/>
<path d="M2 4.3125C2 4.22962 2.03292 4.15013 2.09153 4.09153C2.15013 4.03292 2.22962 4 2.3125 4H16.0625C16.1454 4 16.2249 4.03292 16.2835 4.09153C16.3421 4.15013 16.375 4.22962 16.375 4.3125C16.375 4.39538 16.3421 4.47487 16.2835 4.53347C16.2249 4.59208 16.1454 4.625 16.0625 4.625H2.3125C2.22962 4.625 2.15013 4.59208 2.09153 4.53347C2.03292 4.47487 2 4.39538 2 4.3125ZM9.8125 9H2.3125C2.22962 9 2.15013 9.03292 2.09153 9.09153C2.03292 9.15013 2 9.22962 2 9.3125C2 9.39538 2.03292 9.47487 2.09153 9.53347C2.15013 9.59208 2.22962 9.625 2.3125 9.625H9.8125C9.89538 9.625 9.97487 9.59208 10.0335 9.53347C10.0921 9.47487 10.125 9.39538 10.125 9.3125C10.125 9.22962 10.0921 9.15013 10.0335 9.09153C9.97487 9.03292 9.89538 9 9.8125 9ZM9.8125 14H2.3125C2.22962 14 2.15013 14.0329 2.09153 14.0915C2.03292 14.1501 2 14.2296 2 14.3125C2 14.3954 2.03292 14.4749 2.09153 14.5335C2.15013 14.5921 2.22962 14.625 2.3125 14.625H9.8125C9.89538 14.625 9.97487 14.5921 10.0335 14.5335C10.0921 14.4749 10.125 14.3954 10.125 14.3125C10.125 14.2296 10.0921 14.1501 10.0335 14.0915C9.97487 14.0329 9.89538 14 9.8125 14ZM18.25 11.8125C18.25 11.8655 18.2365 11.9176 18.2108 11.9639C18.1851 12.0102 18.148 12.0493 18.1031 12.0773L13.1031 15.2023C13.0535 15.2334 12.9961 15.25 12.9375 15.25C12.8845 15.2498 12.8324 15.2364 12.7859 15.2109C12.7371 15.1839 12.6965 15.1442 12.6682 15.0962C12.6399 15.0481 12.625 14.9933 12.625 14.9375V8.6875C12.625 8.63173 12.64 8.57698 12.6683 8.52894C12.6966 8.4809 12.7373 8.44132 12.7861 8.41429C12.8349 8.38727 12.89 8.37379 12.9457 8.37526C13.0015 8.37673 13.0558 8.3931 13.1031 8.42266L18.1031 11.5477C18.148 11.5757 18.1851 11.6148 18.2108 11.6611C18.2365 11.7074 18.25 11.7595 18.25 11.8125ZM17.3477 11.8125L13.25 9.25156V14.3734L17.3477 11.8125Z" fill="white"/>
</svg>
