<svg width="32" height="32" viewBox="0 0 32 32" fill="none" xmlns="http://www.w3.org/2000/svg">
<path fill-rule="evenodd" clip-rule="evenodd" d="M15.9998 3.94995C10.8816 3.94995 6.73242 8.0991 6.73242 13.2173C6.73242 14.7122 7.29769 16.3944 8.21048 18.1186C9.11816 19.8331 10.3375 21.5297 11.5716 23.0381C12.8037 24.544 14.0379 25.8469 14.9649 26.774C15.3827 27.1917 15.7372 27.5322 15.9998 27.7796C16.2625 27.5322 16.617 27.1917 17.0347 26.774C17.9618 25.8469 19.1959 24.544 20.428 23.0381C21.6621 21.5297 22.8815 19.8331 23.7892 18.1186C24.7019 16.3944 25.2672 14.7122 25.2672 13.2173C25.2672 8.0991 21.1181 3.94995 15.9998 3.94995ZM15.9998 28.7999C15.5015 29.3605 15.5014 29.3604 15.5012 29.3602L15.4926 29.3526L15.4695 29.3318C15.4494 29.3137 15.4201 29.2872 15.3822 29.2527C15.3064 29.1837 15.1963 29.0825 15.0567 28.9517C14.7776 28.6903 14.3803 28.3107 13.9043 27.8346C12.9531 26.8834 11.6829 25.5429 10.4107 23.9879C9.14039 22.4354 7.85538 20.6537 6.8848 18.8204C5.91933 16.9968 5.23242 15.0616 5.23242 13.2173C5.23242 7.27068 10.0531 2.44995 15.9998 2.44995C21.9465 2.44995 26.7672 7.27068 26.7672 13.2173C26.7672 15.0616 26.0803 16.9968 25.1148 18.8204C24.1443 20.6537 22.8592 22.4354 21.589 23.9879C20.3167 25.5429 19.0466 26.8834 18.0954 27.8346C17.6193 28.3107 17.2221 28.6903 16.9429 28.9517C16.8033 29.0825 16.6932 29.1837 16.6174 29.2527C16.5796 29.2872 16.5503 29.3137 16.5302 29.3318L16.507 29.3526L16.499 29.3597C16.4988 29.3599 16.4981 29.3605 15.9998 28.7999ZM15.9998 28.7999L16.4981 29.3605L15.9998 29.8034L15.5012 29.3602L15.9998 28.7999Z" fill="white"/>
<path d="M20 12C20 14.2091 18.2091 16 16 16C13.7909 16 12 14.2091 12 12C12 9.79086 13.7909 8 16 8C18.2091 8 20 9.79086 20 12Z" fill="white"/>
</svg>
