<svg width="27" height="27" viewBox="0 0 27 27" fill="none" xmlns="http://www.w3.org/2000/svg">
<path d="M1.78125 10.2617H25.9999V23.5163C25.9999 24.175 25.7392 24.8068 25.275 25.2725C24.8109 25.7383 24.1814 26 23.5249 26H4.25623C3.59982 26 2.9703 25.7383 2.50615 25.2725C2.04201 24.8068 1.78125 24.175 1.78125 23.5163V10.2617Z" stroke="white" stroke-width="0.689859" stroke-linecap="round" stroke-linejoin="round"/>
<path d="M17.5744 17.8505L12.3319 14.5498C12.2819 14.5182 12.2245 14.5007 12.1655 14.499C12.1065 14.4974 12.0482 14.5116 11.9965 14.5403C11.9449 14.569 11.9019 14.611 11.872 14.662C11.8421 14.7131 11.8264 14.7713 11.8265 14.8305V21.432C11.8264 21.4912 11.8421 21.5494 11.872 21.6004C11.9019 21.6515 11.9449 21.6935 11.9965 21.7222C12.0482 21.7509 12.1065 21.7651 12.1655 21.7635C12.2245 21.7618 12.2819 21.7443 12.3319 21.7127L17.5744 18.412C17.6216 18.382 17.6604 18.3405 17.6873 18.2915C17.7143 18.2424 17.7284 18.1873 17.7284 18.1312C17.7284 18.0752 17.7143 18.0201 17.6873 17.971C17.6604 17.9219 17.6216 17.8805 17.5744 17.8505ZM22.6358 1.24231L21.9223 4.13556L18.392 4.78716L19.1055 1.89391L15.4251 2.57332L14.7109 5.46725L11.1805 6.11886L11.8947 3.22561L8.21368 3.90502L7.50018 6.79827L3.96981 7.45055L4.68331 4.55731L1.67591 5.11263C1.5693 5.13221 1.46758 5.1727 1.37658 5.23178C1.28558 5.29085 1.20708 5.36736 1.14557 5.45692C1.08407 5.54648 1.04077 5.64733 1.01815 5.7537C0.995532 5.86007 0.994038 5.96987 1.01375 6.07682L1.78131 10.2624L25.6 5.86391L24.8324 1.67829C24.8129 1.57131 24.7726 1.46923 24.7137 1.37791C24.6548 1.28658 24.5786 1.20781 24.4894 1.14609C24.4001 1.08437 24.2996 1.04091 24.1936 1.01822C24.0876 0.995516 23.9782 0.994017 23.8716 1.0138L22.6358 1.24231Z" stroke="white" stroke-width="0.689859" stroke-linecap="round" stroke-linejoin="round"/>
</svg>
