<svg width="27" height="26" viewBox="0 0 27 26" fill="none" xmlns="http://www.w3.org/2000/svg">
<path d="M19.2287 20.3685L24.721 24.8247C24.836 24.9179 24.9751 24.9767 25.1223 24.9944C25.2695 25.0121 25.4187 24.9878 25.5526 24.9244C25.6865 24.8611 25.7996 24.7612 25.8788 24.6364C25.958 24.5117 26 24.3671 26 24.2195V11.1929C25.9996 11.0454 25.9574 10.9011 25.8781 10.7766C25.7988 10.652 25.6858 10.5524 25.552 10.4891C25.4183 10.4258 25.2693 10.4015 25.1222 10.4189C24.9752 10.4364 24.8361 10.4949 24.721 10.5877L19.2287 15.0157M17.655 24.814H2.57466C2.15711 24.8138 1.75674 24.6485 1.46149 24.3546C1.16624 24.0606 1.00026 23.662 1 23.2463V12.1651C1.00026 11.7494 1.16624 11.3508 1.46149 11.0568C1.75674 10.7629 2.15711 10.5976 2.57466 10.5974H17.655C18.5245 10.5974 19.2287 11.2994 19.2287 12.1651V23.2463C19.2287 23.662 19.0629 24.0607 18.7679 24.3549C18.4728 24.649 18.0725 24.8135 17.655 24.814ZM1.0107 4.58419C1.01057 5.53438 1.38959 6.44572 2.06438 7.1177C2.73917 7.78968 3.65445 8.16727 4.60887 8.1674C5.5633 8.16753 6.47868 7.79019 7.15365 7.11839C7.82863 6.44658 8.20789 5.53535 8.20802 4.58515C8.20834 4.11466 8.11557 3.64872 7.93502 3.21392C7.75447 2.77912 7.48966 2.38398 7.15572 2.05107C6.48129 1.37872 5.56622 1.00064 4.61179 1C3.65737 0.999359 2.74178 1.37621 2.06644 2.04765C1.39111 2.71909 1.01134 3.63011 1.0107 4.58031V4.58419ZM11.8796 4.58419C11.8792 5.53438 12.258 6.44582 12.9326 7.11798C13.6072 7.79015 14.5224 8.16798 15.4768 8.16837C16.4313 8.16875 17.3467 7.79166 18.0219 7.12004C18.6971 6.44842 19.0766 5.53729 19.077 4.58709V4.58419C19.0771 4.11369 18.9843 3.64777 18.8036 3.21302C18.6229 2.77827 18.358 2.38321 18.024 2.05039C17.3494 1.37822 16.4342 1.00039 15.4797 1C14.5253 0.999616 13.6098 1.37671 12.9347 2.04833C12.2595 2.71995 11.88 3.63108 11.8796 4.58128V4.58419Z" stroke="white" stroke-linecap="round" stroke-linejoin="round"/>
</svg>
