<svg width="32" height="32" viewBox="0 0 32 32" fill="none" xmlns="http://www.w3.org/2000/svg">
<path d="M4.08226 9.65954C4.14462 8.29688 4.35799 7.41804 4.64653 6.67204L4.65042 6.66174C4.93635 5.90262 5.38428 5.21493 5.96302 4.64654L5.97115 4.63857L5.97912 4.63044C6.54799 4.05096 7.23591 3.60347 7.99437 3.31829L8.00745 3.31328C8.75174 3.02384 9.62887 2.81127 10.9927 2.74892M4.08226 9.65954C4.01671 11.1155 4 11.5668 4 15.3417C4 19.1175 4.01579 19.5678 4.08223 21.0241M4.08226 9.65954L4.08226 10.0268M4.6516 24.0224C4.93678 24.7808 5.38427 25.4687 5.96376 26.0376L5.97186 26.0456L5.97983 26.0537C6.54825 26.6324 7.23596 27.0804 7.99509 27.3663L8.00642 27.3706C8.75139 27.6595 9.62894 27.8721 10.9927 27.9345M4.6516 24.0224L4.6466 24.0093C4.35715 23.265 4.14458 22.3879 4.08223 21.0241M4.6516 24.0224L4.6345 23.9323M4.08223 21.0241L4.10456 21.1416M4.08223 21.0241L4.08223 20.6559M4.6345 23.9323L4.10456 21.1416M4.6345 23.9323C4.40943 23.3377 4.17767 22.5081 4.10456 21.1416M4.6345 23.9323C4.6424 23.9532 4.65029 23.9737 4.65816 23.994C4.94359 24.7635 5.39585 25.4603 5.98242 26.0342C6.55615 26.6207 7.25263 27.0728 8.02185 27.3583C8.63917 27.5987 9.50901 27.85 10.9925 27.918C12.4895 27.9861 12.952 28 16.675 28C20.398 28 20.8609 27.9861 22.358 27.918C23.8433 27.8499 24.7121 27.5972 25.3272 27.3586C26.0969 27.0733 26.7937 26.621 27.3676 26.0342C27.954 25.4605 28.4062 24.764 28.6916 23.9949C28.9321 23.3775 29.1833 22.5077 29.2513 21.0243C29.3194 19.5272 29.3333 19.0638 29.3333 15.3417C29.3333 11.6196 29.3194 11.1558 29.2513 9.65875C29.1829 8.16571 28.9279 7.2956 28.6882 6.67991C28.3748 5.87099 27.9775 5.25918 27.3667 4.64838C26.7571 4.04001 26.1469 3.64241 25.3374 3.32875C24.7195 3.08718 23.8488 2.83376 22.358 2.76544C22.2283 2.75954 22.1064 2.75405 21.9895 2.74893M4.10456 21.1416C4.1025 21.1031 4.10056 21.0641 4.09875 21.0247C4.09285 20.8949 4.08735 20.7729 4.08223 20.6559M10.9927 2.74892C12.4489 2.68248 12.9001 2.66669 16.675 2.66669C20.4499 2.66669 20.9009 2.68338 22.3568 2.74893M10.9927 2.74892L11.3609 2.74892M22.3568 2.74893L21.9895 2.74893M22.3568 2.74893C23.7197 2.81127 24.5986 3.0246 25.3447 3.31318L25.355 3.3171C26.1141 3.60304 26.8018 4.05097 27.3702 4.62971L27.3781 4.63775L27.3861 4.64564C27.965 5.21409 28.4128 5.90196 28.6985 6.66129L28.7034 6.67414C28.9929 7.41843 29.2055 8.29556 29.2678 9.65935M11.3609 2.74892L21.9895 2.74893M11.3609 2.74892C12.594 2.695 13.2756 2.68339 16.675 2.68339C20.0747 2.68339 20.7561 2.695 21.9895 2.74893M11.3609 2.74892C11.2438 2.75404 11.1218 2.75953 10.9921 2.76544C9.50676 2.83351 8.63795 3.08621 8.02282 3.32479C7.25027 3.61118 6.55108 4.06584 5.97594 4.65584C5.37084 5.26343 4.97477 5.87231 4.6621 6.67921C4.42052 7.29709 4.16706 8.16821 4.09874 9.65914C4.09285 9.78849 4.08737 9.91012 4.08226 10.0268M29.2678 21.0241C29.2055 22.3878 28.9929 23.2654 28.704 24.0103L28.6996 24.0217C28.4137 24.7808 27.9658 25.4685 27.387 26.0369L27.3789 26.0448L27.3709 26.053C26.802 26.6325 26.1141 27.0799 25.3557 27.3651L25.3426 27.3701C24.5983 27.6596 23.7212 27.8721 22.3574 27.9345M4.08223 20.6559C4.02831 19.4227 4.01671 18.7412 4.01671 15.3417C4.01671 11.9412 4.0283 11.2606 4.08226 10.0268M4.08223 20.6559L4.08226 10.0268M14.4207 20.7842C15.1354 21.0802 15.9014 21.2326 16.675 21.2326C18.2374 21.2326 19.7358 20.6119 20.8405 19.5072C21.9453 18.4024 22.5659 16.9041 22.5659 15.3417C22.5659 13.7793 21.9453 12.281 20.8405 11.1762C19.7358 10.0715 18.2374 9.45083 16.675 9.45083C15.9014 9.45083 15.1354 9.6032 14.4207 9.89924C13.706 10.1953 13.0566 10.6292 12.5095 11.1762C11.9625 11.7232 11.5286 12.3726 11.2326 13.0874C10.9365 13.8021 10.7841 14.5681 10.7841 15.3417C10.7841 16.1153 10.9365 16.8813 11.2326 17.596C11.5286 18.3108 11.9625 18.9602 12.5095 19.5072C13.0566 20.0542 13.706 20.4881 14.4207 20.7842ZM12.4964 11.1631C13.6047 10.0549 15.1077 9.43226 16.675 9.43226C18.2423 9.43226 19.7454 10.0549 20.8536 11.1631C21.9619 12.2713 22.5845 13.7744 22.5845 15.3417C22.5845 16.909 21.9619 18.4121 20.8536 19.5203C19.7454 20.6285 18.2423 21.2511 16.675 21.2511C15.1077 21.2511 13.6047 20.6285 12.4964 19.5203C11.3882 18.4121 10.7656 16.909 10.7656 15.3417C10.7656 13.7744 11.3882 12.2713 12.4964 11.1631ZM25.912 8.05641C25.912 8.505 25.7338 8.93521 25.4166 9.25241C25.0994 9.56961 24.6692 9.74781 24.2206 9.74781C23.7721 9.74781 23.3418 9.56961 23.0246 9.25241C22.7074 8.93521 22.5292 8.505 22.5292 8.05641C22.5292 7.60783 22.7074 7.17761 23.0246 6.86042C23.3418 6.54322 23.7721 6.36502 24.2206 6.36502C24.6692 6.36502 25.0994 6.54322 25.4166 6.86042C25.7338 7.17761 25.912 7.60783 25.912 8.05641Z" stroke="white" stroke-linejoin="round"/>
</svg>
