<svg width="32" height="32" viewBox="0 0 32 32" fill="none" xmlns="http://www.w3.org/2000/svg">
<path d="M29.2833 3.65251C29.197 3.57797 29.092 3.52843 28.9797 3.50927C28.8673 3.4901 28.7518 3.50202 28.6458 3.54376L3.31327 13.4575C3.05503 13.5577 2.83636 13.7392 2.69024 13.9746C2.54411 14.2099 2.47845 14.4864 2.50313 14.7623C2.52782 15.0382 2.64152 15.2986 2.8271 15.5043C3.01268 15.7099 3.26008 15.8497 3.53202 15.9025L10.4995 17.27V25C10.4995 25.2991 10.5888 25.5913 10.7561 25.8392C10.9234 26.0871 11.1609 26.2794 11.4383 26.3913C11.6167 26.4629 11.8072 26.4998 11.9995 26.5C12.2008 26.4995 12.3999 26.4586 12.585 26.3796C12.7702 26.3005 12.9375 26.1851 13.077 26.04L16.577 22.415L21.952 27.1288C22.2245 27.3691 22.575 27.5023 22.9383 27.5038C23.0969 27.5031 23.2546 27.4782 23.4058 27.43C23.6532 27.3517 23.8758 27.2098 24.0513 27.0185C24.2268 26.8272 24.349 26.5933 24.4058 26.34L29.4833 4.26501C29.5087 4.15437 29.5035 4.03891 29.4683 3.931C29.433 3.82309 29.3691 3.72681 29.2833 3.65251ZM3.49952 14.6725C3.49219 14.612 3.50581 14.5509 3.53811 14.4993C3.57041 14.4476 3.61944 14.4086 3.67702 14.3888L25.5083 5.84501L10.8833 16.3263L3.72577 14.9213C3.6651 14.9124 3.6094 14.8827 3.56814 14.8374C3.52688 14.792 3.50263 14.7337 3.49952 14.6725ZM12.3583 25.345C12.2891 25.4162 12.2004 25.4652 12.1033 25.4858C12.0062 25.5064 11.9052 25.4977 11.8131 25.4607C11.721 25.4237 11.642 25.3601 11.5862 25.2781C11.5303 25.1961 11.5002 25.0992 11.4995 25V17.9625L15.822 21.75L12.3583 25.345ZM23.4308 26.1125C23.4114 26.1974 23.3703 26.2758 23.3113 26.3398C23.2524 26.4039 23.1778 26.4515 23.0948 26.4779C23.0119 26.5043 22.9235 26.5086 22.8383 26.4903C22.7532 26.472 22.6743 26.4319 22.6095 26.3738L11.8033 16.8975L28.2658 5.10001L23.4308 26.1125Z" fill="white"/>
</svg>
