<svg width="32" height="32" viewBox="0 0 32 32" fill="none" xmlns="http://www.w3.org/2000/svg">
<path d="M4.53399 4.53335L4.17873 4.18146L4.18295 4.1773L4.53399 4.53335ZM4.53399 27.4667L4.18209 27.8219L4.17793 27.8177L4.53399 27.4667ZM27.4673 27.4667L27.8226 27.8186L27.8184 27.8227L27.4673 27.4667ZM27.4673 4.53335L27.8192 4.1781L27.8234 4.18232L27.4673 4.53335ZM7.16509 10.7822L6.6652 10.7925C6.66244 10.6581 6.71389 10.5283 6.80793 10.4323C6.90198 10.3363 7.03071 10.2822 7.16509 10.2822V10.7822ZM17.2095 21.8756H17.7095C17.7095 22.1517 17.4857 22.3756 17.2095 22.3756V21.8756ZM17.2095 17.9111H16.7095C16.7095 17.7699 16.7693 17.6353 16.874 17.5405C16.9787 17.4457 17.1186 17.3996 17.2591 17.4136L17.2095 17.9111ZM21.8051 21.8756V22.3756C21.5878 22.3756 21.3953 22.2352 21.329 22.0283L21.8051 21.8756ZM24.9606 21.8756L25.4433 21.7451C25.4839 21.8953 25.4523 22.0559 25.3577 22.1795C25.2631 22.3031 25.1163 22.3756 24.9606 22.3756V21.8756ZM23.2772 18.6045L23.664 18.2875H23.664L23.2772 18.6045ZM20.4006 16.3111L20.1779 16.7588C20.0149 16.6776 19.9089 16.5143 19.9011 16.3324C19.8934 16.1505 19.9851 15.9788 20.1406 15.8841L20.4006 16.3111ZM22.9245 13.948L23.3336 14.2356H23.3335L22.9245 13.948ZM24.294 10.7734V10.2734C24.4442 10.2734 24.5864 10.3409 24.6813 10.4572C24.7763 10.5735 24.8139 10.7264 24.7838 10.8735L24.294 10.7734ZM21.4318 10.7734L20.9506 10.6375C21.0114 10.4221 21.2079 10.2734 21.4318 10.2734V10.7734ZM17.2095 15.1645L17.2625 15.6617C17.1215 15.6767 16.9807 15.6311 16.8752 15.5363C16.7698 15.4415 16.7095 15.3063 16.7095 15.1645H17.2095ZM17.2095 10.7822V10.2822C17.4857 10.2822 17.7095 10.5061 17.7095 10.7822H17.2095ZM14.3384 10.7822H13.8384C13.8384 10.5061 14.0623 10.2822 14.3384 10.2822V10.7822ZM14.3384 18.4622H14.8384C14.8384 18.6162 14.7675 18.7616 14.6461 18.8563C14.5248 18.9511 14.3665 18.9847 14.2172 18.9473L14.3384 18.4622ZM10.2229 10.7822V10.2822C10.4953 10.2822 10.7175 10.5003 10.7228 10.7726L10.2229 10.7822ZM2.16732 15.4667C2.16732 12.463 2.16627 10.1612 2.40507 8.37702C2.6458 6.57844 3.13834 5.23181 4.17876 4.18148L4.88921 4.88523C4.06296 5.71934 3.62217 6.8216 3.39623 8.50968C3.16837 10.2121 3.16732 12.4348 3.16732 15.4667H2.16732ZM2.16732 16.5334V15.4667H3.16732V16.5334H2.16732ZM4.17793 27.8177C3.1383 26.7632 2.64581 25.415 2.40507 23.6164C2.16627 21.8321 2.16732 19.5326 2.16732 16.5334H3.16732C3.16732 19.5607 3.16837 21.7812 3.39623 23.4837C3.62216 25.1717 4.06301 26.2768 4.89004 27.1157L4.17793 27.8177ZM15.4673 29.8334C12.4636 29.8334 10.1619 29.8344 8.37765 29.5956C6.57907 29.3549 5.23244 28.8623 4.18211 27.8219L4.88586 27.1115C5.71997 27.9377 6.82223 28.3785 8.51031 28.6044C10.2128 28.8323 12.4355 28.8334 15.4673 28.8334V29.8334ZM16.534 29.8334H15.4673V28.8334H16.534V29.8334ZM27.8184 27.8227C26.7639 28.8624 25.4156 29.3549 23.617 29.5956C21.8328 29.8344 19.5333 29.8334 16.534 29.8334V28.8334C19.5614 28.8334 21.7819 28.8323 23.4843 28.6044C25.1723 28.3785 26.2774 27.9377 27.1163 27.1106L27.8184 27.8227ZM29.834 16.5334C29.834 19.5371 29.835 21.8388 29.5962 23.623C29.3555 25.4216 28.863 26.7682 27.8225 27.8186L27.1121 27.1148C27.9383 26.2807 28.3791 25.1784 28.6051 23.4904C28.8329 21.7879 28.834 19.5652 28.834 16.5334H29.834ZM29.834 15.4667V16.5334H28.834V15.4667H29.834ZM27.8234 4.18232C28.863 5.2368 29.3555 6.58502 29.5962 8.38369C29.835 10.1679 29.834 12.4674 29.834 15.4667H28.834C28.834 12.4393 28.8329 10.2188 28.6051 8.51635C28.3791 6.82835 27.9383 5.72324 27.1113 4.88439L27.8234 4.18232ZM16.534 2.16669C19.5377 2.16669 21.8394 2.16563 23.6236 2.40444C25.4222 2.64517 26.7689 3.13771 27.8192 4.17813L27.1154 4.88858C26.2813 4.06233 25.1791 3.62154 23.491 3.3956C21.7885 3.16774 19.5658 3.16669 16.534 3.16669V2.16669ZM15.4673 2.16669H16.534V3.16669H15.4673V2.16669ZM4.18295 4.1773C5.23743 3.13767 6.58565 2.64518 8.38432 2.40444C10.1685 2.16564 12.468 2.16669 15.4673 2.16669V3.16669C12.4399 3.16669 10.2194 3.16774 8.51698 3.3956C6.82898 3.62153 5.72387 4.06237 4.88502 4.88941L4.18295 4.1773ZM16.854 22.3756C13.6918 22.3756 11.1578 21.2887 9.40424 19.2555C7.66059 17.2338 6.73785 14.3342 6.6652 10.7925L7.66499 10.772C7.73456 14.1637 8.61626 16.8107 10.1615 18.6024C11.6968 20.3825 13.9362 21.3756 16.854 21.3756V22.3756ZM16.8629 22.3756H16.854V21.3756H16.8629V22.3756ZM17.2095 22.3756H16.8629V21.3756H17.2095V22.3756ZM17.7095 17.9111V21.8756H16.7095V17.9111H17.7095ZM21.329 22.0283C20.7021 20.0735 19.1562 18.6075 17.16 18.4087L17.2591 17.4136C19.7251 17.6592 21.5569 19.4643 22.2812 21.7229L21.329 22.0283ZM24.9606 22.3756H21.8051V21.3756H24.9606V22.3756ZM23.664 18.2875C24.4948 19.3013 25.1012 20.4798 25.4433 21.7451L24.478 22.0061C24.1728 20.8772 23.6317 19.8259 22.8905 18.9214L23.664 18.2875ZM20.6234 15.8635C21.7969 16.4476 22.8332 17.2737 23.664 18.2875L22.8905 18.9214C22.1493 18.0169 21.2248 17.2798 20.1779 16.7588L20.6234 15.8635ZM23.3335 14.2356C22.6241 15.2447 21.7142 16.0966 20.6607 16.7382L20.1406 15.8841C21.0767 15.314 21.8851 14.5571 22.5155 13.6605L23.3335 14.2356ZM24.7838 10.8735C24.5367 12.082 24.043 13.2265 23.3336 14.2356L22.5155 13.6605C23.1458 12.7639 23.5845 11.7469 23.8041 10.6732L24.7838 10.8735ZM21.4318 10.2734H24.294V11.2734H21.4318V10.2734ZM17.1565 14.6673C17.8719 14.591 18.6694 14.1308 19.3815 13.3812C20.0869 12.6386 20.6624 11.6583 20.9506 10.6375L21.913 10.9092C21.5789 12.0929 20.9188 13.2148 20.1065 14.0699C19.3007 14.9182 18.2983 15.5512 17.2625 15.6617L17.1565 14.6673ZM17.7095 10.7822V15.1645H16.7095V10.7822H17.7095ZM14.3384 10.2822H17.2095V11.2822H14.3384V10.2822ZM13.8384 18.4622V10.7822H14.8384V18.4622H13.8384ZM10.7228 10.7726C10.8179 15.7192 12.9761 17.6063 14.4597 17.9772L14.2172 18.9473C12.1452 18.4293 9.82339 16.0141 9.72296 10.7919L10.7228 10.7726ZM7.16509 10.2822H10.2229V11.2822H7.16509V10.2822Z" fill="white"/>
</svg>
