<svg xmlns="http://www.w3.org/2000/svg" version="1.1" xmlns:xlink="http://www.w3.org/1999/xlink" width="512" height="512" x="0" y="0" viewBox="0 0 512 512" style="enable-background:new 0 0 512 512" xml:space="preserve" class=""><g><path d="M264.081 0A247.971 247.971 0 0 0 40.116 354.363L.238 503.188a7 7 0 0 0 8.574 8.573l148.826-39.877A247.945 247.945 0 1 0 264.081 0zm165.4 413.324a233.93 233.93 0 0 1-268.073 44.836 7.009 7.009 0 0 0-4.884-.472L16.9 495.1l37.412-139.625a7.006 7.006 0 0 0-.472-4.883A233.948 233.948 0 0 1 429.486 82.513a233.918 233.918 0 0 1 0 330.811zM407.333 312.24l-54.878-32.647a19.6 19.6 0 0 0-24.91 3.836l-23.163 25.955a5.6 5.6 0 0 1-6.592 1.485 168.026 168.026 0 0 1-90.034-90.035 5.6 5.6 0 0 1 1.485-6.592l25.959-23.161a19.6 19.6 0 0 0 3.836-24.911l-32.646-54.878a19.553 19.553 0 0 0-17.908-9.663 101.478 101.478 0 0 0-30.632 6.319 6.975 6.975 0 0 0-1.8.985c-16.851 12.749-27.372 34.991-31.274 66.109a43.569 43.569 0 0 0 .422 14.02c8.947 47.75 34.552 94.725 72.1 132.272s84.522 63.151 132.273 72.1a44.145 44.145 0 0 0 8.245.8 46.35 46.35 0 0 0 5.775-.375c31.117-3.9 53.359-14.424 66.108-31.274a7 7 0 0 0 .985-1.8A101.519 101.519 0 0 0 417 330.149a19.524 19.524 0 0 0-9.667-17.909zm-9.429 42.7c-10.515 13.26-29.369 21.677-56.062 25.024a29.762 29.762 0 0 1-9.7-.291c-92.756-17.379-175.809-100.432-193.189-193.188a29.734 29.734 0 0 1-.291-9.7c3.347-26.692 11.765-45.547 25.026-56.062a87.237 87.237 0 0 1 25.412-5.106 5.528 5.528 0 0 1 5.254 2.834L227 173.328a5.751 5.751 0 0 1-1.126 7.307L199.92 203.8a19.565 19.565 0 0 0-5.065 22.477 181.953 181.953 0 0 0 97.5 97.5 19.56 19.56 0 0 0 22.475-5.065l23.16-25.962a5.749 5.749 0 0 1 7.307-1.125l54.879 32.647a5.519 5.519 0 0 1 2.833 5.253 87.209 87.209 0 0 1-5.109 25.413z" fill="#fff" opacity="1" data-original="#fff" class=""></path></g></svg>
