<svg width="32" height="32" viewBox="0 0 32 32" fill="none" xmlns="http://www.w3.org/2000/svg">
<path fill-rule="evenodd" clip-rule="evenodd" d="M27.4606 5.94664C28.7234 6.28469 29.716 7.27712 30.054 8.53999C30.6649 10.8267 30.6673 15.6005 30.6673 15.6005C30.6673 15.6005 30.6673 20.3743 30.054 22.661C29.716 23.9238 28.7234 24.9162 27.4606 25.2542C25.174 25.8676 16.0006 25.8676 16.0006 25.8676C16.0006 25.8676 6.82734 25.8676 4.54065 25.2542C3.27779 24.9162 2.28536 23.9238 1.94731 22.661C1.33398 20.3743 1.33398 15.6005 1.33398 15.6005C1.33398 15.6005 1.33398 10.8267 1.94731 8.53999C2.28536 7.27712 3.27779 6.28469 4.54065 5.94664C6.82734 5.33331 16.0006 5.33331 16.0006 5.33331C16.0006 5.33331 25.174 5.33331 27.4606 5.94664ZM20.6852 15.6009L13.0645 20.0003V11.2013L20.6852 15.6009Z" stroke="white" stroke-linejoin="round"/>
</svg>
