<svg width="48" height="48" viewBox="0 0 48 48" fill="none" xmlns="http://www.w3.org/2000/svg">
<rect x="0.25" y="0.25" width="47.5" height="47.5" rx="5.75" stroke="#C1A7F5" stroke-width="0.5"/>
<path d="M35 26.9777C35 27.0873 34.9554 27.1923 34.8761 27.2697C34.7968 27.3472 34.6892 27.3907 34.577 27.3907H32.4618V29.4555C32.4618 29.565 32.4172 29.67 32.3379 29.7475C32.2585 29.8249 32.1509 29.8684 32.0387 29.8684C31.9265 29.8684 31.8189 29.8249 31.7396 29.7475C31.6603 29.67 31.6157 29.565 31.6157 29.4555V27.3907H29.5005C29.3883 27.3907 29.2807 27.3472 29.2014 27.2697C29.122 27.1923 29.0775 27.0873 29.0775 26.9777C29.0775 26.8682 29.122 26.7632 29.2014 26.6857C29.2807 26.6083 29.3883 26.5648 29.5005 26.5648H31.6157V24.5C31.6157 24.3905 31.6603 24.2854 31.7396 24.208C31.8189 24.1306 31.9265 24.087 32.0387 24.087C32.1509 24.087 32.2585 24.1306 32.3379 24.208C32.4172 24.2854 32.4618 24.3905 32.4618 24.5V26.5648H34.577C34.6892 26.5648 34.7968 26.6083 34.8761 26.6857C34.9554 26.7632 35 26.8682 35 26.9777ZM15.1172 18.3057H17.2324V20.3704C17.2324 20.48 17.277 20.585 17.3563 20.6624C17.4357 20.7399 17.5433 20.7834 17.6555 20.7834C17.7677 20.7834 17.8753 20.7399 17.9546 20.6624C18.0339 20.585 18.0785 20.48 18.0785 20.3704V18.3057H20.1937C20.3059 18.3057 20.4135 18.2622 20.4928 18.1847C20.5722 18.1073 20.6167 18.0022 20.6167 17.8927C20.6167 17.7832 20.5722 17.6781 20.4928 17.6007C20.4135 17.5233 20.3059 17.4797 20.1937 17.4797H18.0785V15.415C18.0785 15.3054 18.0339 15.2004 17.9546 15.123C17.8753 15.0455 17.7677 15.002 17.6555 15.002C17.5433 15.002 17.4357 15.0455 17.3563 15.123C17.277 15.2004 17.2324 15.3054 17.2324 15.415V17.4797H15.1172C15.005 17.4797 14.8974 17.5233 14.8181 17.6007C14.7388 17.6781 14.6942 17.7832 14.6942 17.8927C14.6942 18.0022 14.7388 18.1073 14.8181 18.1847C14.8974 18.2622 15.005 18.3057 15.1172 18.3057ZM28.6544 31.5203H27.3853V30.2814C27.3853 30.1719 27.3408 30.0668 27.2614 29.9894C27.1821 29.9119 27.0745 29.8684 26.9623 29.8684C26.8501 29.8684 26.7425 29.9119 26.6632 29.9894C26.5838 30.0668 26.5393 30.1719 26.5393 30.2814V31.5203H25.2701C25.1579 31.5203 25.0503 31.5638 24.971 31.6412C24.8917 31.7186 24.8471 31.8237 24.8471 31.9332C24.8471 32.0427 24.8917 32.1478 24.971 32.2252C25.0503 32.3027 25.1579 32.3462 25.2701 32.3462H26.5393V33.585C26.5393 33.6946 26.5838 33.7996 26.6632 33.877C26.7425 33.9545 26.8501 33.998 26.9623 33.998C27.0745 33.998 27.1821 33.9545 27.2614 33.877C27.3408 33.7996 27.3853 33.6946 27.3853 33.585V32.3462H28.6544C28.7666 32.3462 28.8742 32.3027 28.9536 32.2252C29.0329 32.1478 29.0775 32.0427 29.0775 31.9332C29.0775 31.8237 29.0329 31.7186 28.9536 31.6412C28.8742 31.5638 28.7666 31.5203 28.6544 31.5203ZM32.0895 19.2524L17.3562 33.6356C17.2383 33.7511 17.0982 33.8428 16.9439 33.9053C16.7896 33.9678 16.6242 34 16.4572 34C16.2902 34 16.1248 33.9678 15.9705 33.9053C15.8163 33.8428 15.6762 33.7511 15.5583 33.6356L13.3733 31.4996C13.255 31.3845 13.1611 31.2477 13.097 31.0972C13.033 30.9466 13 30.7851 13 30.6221C13 30.459 13.033 30.2976 13.097 30.147C13.1611 29.9964 13.255 29.8596 13.3733 29.7445L28.1077 15.3644C28.2256 15.2489 28.3657 15.1572 28.5199 15.0947C28.6742 15.0322 28.8396 15 29.0066 15C29.1737 15 29.339 15.0322 29.4933 15.0947C29.6476 15.1572 29.7877 15.2489 29.9056 15.3644L32.0895 17.5004C32.3275 17.7327 32.4612 18.0478 32.4612 18.3764C32.4612 18.7049 32.3275 19.02 32.0895 19.2524ZM27.2098 22.8482L24.4241 20.1289L13.9719 30.332C13.8928 30.4094 13.8483 30.5143 13.8483 30.6236C13.8483 30.733 13.8928 30.8379 13.9719 30.9153L16.159 33.0513C16.1983 33.0897 16.2449 33.1201 16.2963 33.1409C16.3476 33.1617 16.4027 33.1724 16.4583 33.1724C16.5139 33.1724 16.5689 33.1617 16.6203 33.1409C16.6716 33.1201 16.7183 33.0897 16.7576 33.0513L27.2098 22.8482ZM31.492 18.0847L29.3038 15.9487C29.2645 15.9103 29.2179 15.8799 29.1665 15.8591C29.1151 15.8383 29.0601 15.8276 29.0045 15.8276C28.9489 15.8276 28.8939 15.8383 28.8425 15.8591C28.7911 15.8799 28.7445 15.9103 28.7052 15.9487L25.0216 19.5445L27.8084 22.2638L31.492 18.668C31.5711 18.5906 31.6155 18.4857 31.6155 18.3764C31.6155 18.267 31.5711 18.1621 31.492 18.0847Z" fill="white"/>
</svg>
