<svg width="48" height="48" viewBox="0 0 48 48" fill="none" xmlns="http://www.w3.org/2000/svg">
<rect x="0.25" y="0.25" width="47.5" height="47.5" rx="5.75" stroke="#C1A7F5" stroke-width="0.5"/>
<path d="M29.8871 24.6508L29.5205 24.3107L29.8871 24.6508ZM23.413 18.1767L23.753 18.5433L23.413 18.1767ZM32.961 16.8349L33.4568 16.8997L32.961 16.8349ZM31.2289 15.1027L31.2937 15.5985L31.2289 15.1027ZM19.0749 24.5058L19.5238 24.7259L19.0749 24.5058ZM23.5579 28.9888L23.3378 28.5399L23.5579 28.9888ZM20.5295 22.3549C20.3343 22.1597 20.0177 22.1597 19.8224 22.3549C19.6272 22.5502 19.6272 22.8668 19.8224 23.062L20.5295 22.3549ZM25.0017 28.2413C25.197 28.4366 25.5135 28.4366 25.7088 28.2413C25.9041 28.0461 25.9041 27.7295 25.7088 27.5342L25.0017 28.2413ZM18.911 29.8598C19.1063 29.6646 19.1063 29.348 18.911 29.1527C18.7157 28.9575 18.3992 28.9575 18.2039 29.1527L18.911 29.8598ZM15.6143 31.7424C15.419 31.9376 15.419 32.2542 15.6143 32.4495C15.8095 32.6447 16.1261 32.6447 16.3214 32.4495L15.6143 31.7424ZM16.9688 27.9176C17.164 27.7223 17.164 27.4058 16.9688 27.2105C16.7735 27.0152 16.4569 27.0152 16.2617 27.2105L16.9688 27.9176ZM14.9668 28.5053C14.7716 28.7006 14.7716 29.0172 14.9668 29.2124C15.1621 29.4077 15.4787 29.4077 15.674 29.2124L14.9668 28.5053ZM20.8532 31.8021C21.0485 31.6068 21.0485 31.2902 20.8532 31.095C20.658 30.8997 20.3414 30.8997 20.1461 31.095L20.8532 31.8021ZM18.8513 32.3898C18.656 32.585 18.656 32.9016 18.8513 33.0969C19.0466 33.2921 19.3631 33.2921 19.5584 33.0969L18.8513 32.3898ZM22.8303 32.2254L23.3253 32.1547L22.8303 32.2254ZM27.5564 29.0531L28.0514 28.9824L27.5564 29.0531ZM15.8383 25.2334L15.909 24.7384L15.909 24.7384L15.8383 25.2334ZM19.0106 20.5073L18.9399 21.0023L18.9399 21.0023L19.0106 20.5073ZM21.9239 28.2812L19.7825 26.1398L19.0754 26.8469L21.2168 28.9883L21.9239 28.2812ZM29.5205 24.3107C27.7614 26.2073 24.9188 27.7648 23.3378 28.5399L23.778 29.4378C25.3694 28.6576 28.3593 27.0333 30.2537 24.9908L29.5205 24.3107ZM19.5238 24.7259C20.2989 23.1449 21.8564 20.3023 23.753 18.5433L23.073 17.8101C21.0304 19.7044 19.4061 22.6944 18.6259 24.2857L19.5238 24.7259ZM32.4652 16.77C32.1864 18.9017 31.4423 22.2386 29.5205 24.3107L30.2537 24.9908C32.4042 22.672 33.1749 19.0551 33.4568 16.8997L32.4652 16.77ZM23.753 18.5433C25.8251 16.6214 29.1621 15.8773 31.2937 15.5985L31.164 14.607C29.0086 14.8889 25.3917 15.6595 23.073 17.8101L23.753 18.5433ZM33.4568 16.8997C33.6341 15.5437 32.5201 14.4296 31.164 14.607L31.2937 15.5985C31.9985 15.5063 32.5574 16.0653 32.4652 16.77L33.4568 16.8997ZM19.7825 26.1398C19.3971 25.7545 19.2958 25.1911 19.5238 24.7259L18.6259 24.2857C18.198 25.1587 18.407 26.1785 19.0754 26.8469L19.7825 26.1398ZM21.2168 28.9883C21.8852 29.6568 22.905 29.8658 23.778 29.4378L23.3378 28.5399C22.8726 28.7679 22.3093 28.6666 21.9239 28.2812L21.2168 28.9883ZM19.8224 23.062L25.0017 28.2413L25.7088 27.5342L20.5295 22.3549L19.8224 23.062ZM18.2039 29.1527L15.6143 31.7424L16.3214 32.4495L18.911 29.8598L18.2039 29.1527ZM16.2617 27.2105L14.9668 28.5053L15.674 29.2124L16.9688 27.9176L16.2617 27.2105ZM20.1461 31.095L18.8513 32.3898L19.5584 33.0969L20.8532 31.8021L20.1461 31.095ZM25.3254 19.4416C24.415 20.352 24.415 21.828 25.3254 22.7383L26.0325 22.0312C25.5127 21.5114 25.5127 20.6685 26.0325 20.1487L25.3254 19.4416ZM25.3254 22.7383C26.2358 23.6487 27.7118 23.6487 28.6221 22.7383L27.915 22.0312C27.3952 22.5511 26.5523 22.5511 26.0325 22.0312L25.3254 22.7383ZM28.6221 22.7383C29.5325 21.828 29.5325 20.352 28.6221 19.4416L27.915 20.1487C28.4349 20.6685 28.4349 21.5114 27.915 22.0312L28.6221 22.7383ZM28.6221 19.4416C27.7118 18.5312 26.2358 18.5312 25.3254 19.4416L26.0325 20.1487C26.5523 19.6289 27.3952 19.6289 27.915 20.1487L28.6221 19.4416ZM26.9439 29.4764L24.0306 32.3898L24.7377 33.0969L27.651 30.1835L26.9439 29.4764ZM23.3253 32.1547L22.9369 29.4356L21.9469 29.577L22.3354 32.2961L23.3253 32.1547ZM26.8025 27.3111L27.0615 29.1238L28.0514 28.9824L27.7924 27.1696L26.8025 27.3111ZM24.0306 32.3898C23.7884 32.6319 23.3738 32.4937 23.3253 32.1547L22.3354 32.2961C22.5003 33.4509 23.9128 33.9217 24.7377 33.0969L24.0306 32.3898ZM27.651 30.1835C27.9661 29.8685 28.1144 29.4235 28.0514 28.9824L27.0615 29.1238C27.08 29.2533 27.0364 29.3839 26.9439 29.4764L27.651 30.1835ZM17.8802 20.4127L14.9668 23.3261L15.6739 24.0332L18.5873 21.1198L17.8802 20.4127ZM15.7676 25.7284L18.4867 26.1168L18.6281 25.1269L15.909 24.7384L15.7676 25.7284ZM20.8941 20.2713L19.0813 20.0123L18.9399 21.0023L20.7526 21.2613L20.8941 20.2713ZM14.9668 23.3261C14.142 24.1509 14.6128 25.5634 15.7676 25.7284L15.909 24.7384C15.57 24.69 15.4318 24.2753 15.6739 24.0332L14.9668 23.3261ZM18.5873 21.1198C18.6798 21.0273 18.8104 20.9838 18.9399 21.0023L19.0813 20.0123C18.6402 19.9493 18.1952 20.0977 17.8802 20.4127L18.5873 21.1198Z" fill="white"/>
</svg>
