<svg width="48" height="48" viewBox="0 0 48 48" fill="none" xmlns="http://www.w3.org/2000/svg">
<rect x="0.25" y="0.25" width="47.5" height="47.5" rx="5.75" stroke="#C1A7F5" stroke-width="0.5"/>
<ellipse cx="4.25532" cy="4.34282" rx="4.25532" ry="4.34282" transform="matrix(-1 0 0 1 28.0215 15)" stroke="white"/>
<path d="M16.3193 30.0681C16.3193 29.1696 16.8811 28.3669 17.7253 28.0592V28.0592C21.627 26.6371 25.9053 26.6371 29.807 28.0592V28.0592C30.6512 28.3669 31.2129 29.1696 31.2129 30.0681V31.5444C31.2129 32.8392 30.0641 33.8327 28.7828 33.6459L28.457 33.5984C25.3462 33.1449 22.1861 33.1449 19.0753 33.5984L18.7495 33.6459C17.4682 33.8327 16.3193 32.8392 16.3193 31.5444V30.0681Z" stroke="white"/>
<path d="M30.1487 23.8049C31.9953 23.8049 33.4922 22.2772 33.4922 20.3927C33.4922 18.5082 31.9953 16.9805 30.1487 16.9805" stroke="white" stroke-linecap="round"/>
<path d="M33.8099 31.5892L34.1375 31.637C35.12 31.7802 35.9991 31.0021 35.9991 29.9892V28.867C35.9991 28.1331 35.547 27.4784 34.8698 27.2315C34.1942 26.9853 33.5048 26.7935 32.8076 26.6562" stroke="white" stroke-linecap="round"/>
<path d="M16.8513 23.8049C15.0047 23.8049 13.5078 22.2772 13.5078 20.3927C13.5078 18.5082 15.0047 16.9805 16.8513 16.9805" stroke="white" stroke-linecap="round"/>
<path d="M13.1901 31.5892L12.8625 31.637C11.88 31.7802 11.0009 31.0021 11.0009 29.9892V28.867C11.0009 28.1331 11.453 27.4784 12.1302 27.2315C12.8058 26.9853 13.4952 26.7935 14.1924 26.6562" stroke="white" stroke-linecap="round"/>
</svg>
