<svg width="24" height="24" viewBox="0 0 24 24" fill="none" xmlns="http://www.w3.org/2000/svg">
<path d="M23.5153 7.00406C23.4255 6.95604 23.3244 6.93329 23.2227 6.93825C23.121 6.9432 23.0225 6.97567 22.9378 7.03219L19.3125 9.44906V6.75C19.3125 6.4019 19.1742 6.06806 18.9281 5.82192C18.6819 5.57578 18.3481 5.4375 18 5.4375H3C2.6519 5.4375 2.31806 5.57578 2.07192 5.82192C1.82578 6.06806 1.6875 6.4019 1.6875 6.75V17.25C1.6875 17.5981 1.82578 17.9319 2.07192 18.1781C2.31806 18.4242 2.6519 18.5625 3 18.5625H18C18.3481 18.5625 18.6819 18.4242 18.9281 18.1781C19.1742 17.9319 19.3125 17.5981 19.3125 17.25V14.5509L22.9378 16.9688C23.0226 17.0253 23.1211 17.0578 23.2229 17.0627C23.3247 17.0676 23.4259 17.0448 23.5157 16.9966C23.6055 16.9485 23.6806 16.8769 23.7328 16.7894C23.7851 16.7019 23.8127 16.6019 23.8125 16.5V7.5C23.8125 7.39818 23.7848 7.29827 23.7325 7.21093C23.6802 7.12359 23.6051 7.05209 23.5153 7.00406ZM18.1875 17.25C18.1875 17.2997 18.1677 17.3474 18.1326 17.3826C18.0974 17.4177 18.0497 17.4375 18 17.4375H3C2.95027 17.4375 2.90258 17.4177 2.86742 17.3826C2.83225 17.3474 2.8125 17.2997 2.8125 17.25V6.75C2.8125 6.70027 2.83225 6.65258 2.86742 6.61742C2.90258 6.58225 2.95027 6.5625 3 6.5625H18C18.0497 6.5625 18.0974 6.58225 18.1326 6.61742C18.1677 6.65258 18.1875 6.70027 18.1875 6.75V17.25ZM22.6875 15.4491L19.3125 13.1991V10.8009L22.6875 8.55094V15.4491Z" fill="white"/>
</svg>
