<svg width="24" height="24" viewBox="0 0 24 24" fill="none" xmlns="http://www.w3.org/2000/svg">
<path d="M12.5625 11.25V20.25C12.5625 20.3992 12.5032 20.5423 12.3977 20.6477C12.2923 20.7532 12.1492 20.8125 12 20.8125C11.8508 20.8125 11.7077 20.7532 11.6023 20.6477C11.4968 20.5423 11.4375 20.3992 11.4375 20.25V11.25C11.4375 11.1008 11.4968 10.9577 11.6023 10.8523C11.7077 10.7468 11.8508 10.6875 12 10.6875C12.1492 10.6875 12.2923 10.7468 12.3977 10.8523C12.5032 10.9577 12.5625 11.1008 12.5625 11.25ZM18.75 18.1875C18.6008 18.1875 18.4577 18.2468 18.3523 18.3523C18.2468 18.4577 18.1875 18.6008 18.1875 18.75V20.25C18.1875 20.3992 18.2468 20.5423 18.3523 20.6477C18.4577 20.7532 18.6008 20.8125 18.75 20.8125C18.8992 20.8125 19.0423 20.7532 19.1477 20.6477C19.2532 20.5423 19.3125 20.3992 19.3125 20.25V18.75C19.3125 18.6008 19.2532 18.4577 19.1477 18.3523C19.0423 18.2468 18.8992 18.1875 18.75 18.1875ZM21 15.1875H19.3125V3.75C19.3125 3.60082 19.2532 3.45774 19.1477 3.35225C19.0423 3.24676 18.8992 3.1875 18.75 3.1875C18.6008 3.1875 18.4577 3.24676 18.3523 3.35225C18.2468 3.45774 18.1875 3.60082 18.1875 3.75V15.1875H16.5C16.3508 15.1875 16.2077 15.2468 16.1023 15.3523C15.9968 15.4577 15.9375 15.6008 15.9375 15.75C15.9375 15.8992 15.9968 16.0423 16.1023 16.1477C16.2077 16.2532 16.3508 16.3125 16.5 16.3125H21C21.1492 16.3125 21.2923 16.2532 21.3977 16.1477C21.5032 16.0423 21.5625 15.8992 21.5625 15.75C21.5625 15.6008 21.5032 15.4577 21.3977 15.3523C21.2923 15.2468 21.1492 15.1875 21 15.1875ZM5.25 15.1875C5.10082 15.1875 4.95774 15.2468 4.85225 15.3523C4.74676 15.4577 4.6875 15.6008 4.6875 15.75V20.25C4.6875 20.3992 4.74676 20.5423 4.85225 20.6477C4.95774 20.7532 5.10082 20.8125 5.25 20.8125C5.39918 20.8125 5.54226 20.7532 5.64775 20.6477C5.75324 20.5423 5.8125 20.3992 5.8125 20.25V15.75C5.8125 15.6008 5.75324 15.4577 5.64775 15.3523C5.54226 15.2468 5.39918 15.1875 5.25 15.1875ZM7.5 12.1875H5.8125V3.75C5.8125 3.60082 5.75324 3.45774 5.64775 3.35225C5.54226 3.24676 5.39918 3.1875 5.25 3.1875C5.10082 3.1875 4.95774 3.24676 4.85225 3.35225C4.74676 3.45774 4.6875 3.60082 4.6875 3.75V12.1875H3C2.85082 12.1875 2.70774 12.2468 2.60225 12.3523C2.49676 12.4577 2.4375 12.6008 2.4375 12.75C2.4375 12.8992 2.49676 13.0423 2.60225 13.1477C2.70774 13.2532 2.85082 13.3125 3 13.3125H7.5C7.64918 13.3125 7.79226 13.2532 7.89775 13.1477C8.00324 13.0423 8.0625 12.8992 8.0625 12.75C8.0625 12.6008 8.00324 12.4577 7.89775 12.3523C7.79226 12.2468 7.64918 12.1875 7.5 12.1875ZM14.25 7.6875H12.5625V3.75C12.5625 3.60082 12.5032 3.45774 12.3977 3.35225C12.2923 3.24676 12.1492 3.1875 12 3.1875C11.8508 3.1875 11.7077 3.24676 11.6023 3.35225C11.4968 3.45774 11.4375 3.60082 11.4375 3.75V7.6875H9.75C9.60082 7.6875 9.45774 7.74676 9.35225 7.85225C9.24676 7.95774 9.1875 8.10082 9.1875 8.25C9.1875 8.39918 9.24676 8.54226 9.35225 8.64775C9.45774 8.75324 9.60082 8.8125 9.75 8.8125H14.25C14.3992 8.8125 14.5423 8.75324 14.6477 8.64775C14.7532 8.54226 14.8125 8.39918 14.8125 8.25C14.8125 8.10082 14.7532 7.95774 14.6477 7.85225C14.5423 7.74676 14.3992 7.6875 14.25 7.6875Z" fill="white"/>
</svg>
