<svg width="24" height="24" viewBox="0 0 24 24" fill="none" xmlns="http://www.w3.org/2000/svg">
<path d="M11.0453 20.3858C11.0149 20.5076 10.9448 20.6157 10.8459 20.693C10.747 20.7703 10.6251 20.8123 10.4996 20.8124C10.4535 20.8123 10.4076 20.8066 10.3628 20.7955L7.36277 20.0455C7.3004 20.0295 7.24114 20.0032 7.18746 19.9677L4.93746 18.4677C4.8759 18.4267 4.82302 18.374 4.78184 18.3125C4.74066 18.2511 4.71198 18.1822 4.69744 18.1097C4.66808 17.9632 4.6981 17.8111 4.78089 17.6868C4.86369 17.5624 4.99248 17.4761 5.13894 17.4467C5.21145 17.4322 5.28612 17.4321 5.35869 17.4464C5.43125 17.4607 5.50028 17.4892 5.56183 17.5302L7.73027 18.9758L10.6365 19.7024C10.7083 19.7203 10.7758 19.7523 10.8352 19.7964C10.8946 19.8405 10.9447 19.8958 10.9827 19.9593C11.0206 20.0228 11.0457 20.0931 11.0564 20.1663C11.0672 20.2395 11.0634 20.3141 11.0453 20.3858ZM23.4887 11.3296C23.4349 11.4931 23.3492 11.6443 23.2365 11.7745C23.1239 11.9047 22.9865 12.0112 22.8325 12.088L20.5825 13.213L15.3971 18.3983C15.2916 18.5035 15.1486 18.5625 14.9996 18.5624C14.9535 18.5623 14.9075 18.5567 14.8628 18.5455L8.86277 17.0455C8.79535 17.028 8.73177 16.9981 8.67527 16.9574L3.45902 13.2336L1.16871 12.088C0.857449 11.9323 0.620769 11.6594 0.510714 11.3292C0.400659 10.999 0.42624 10.6387 0.581832 10.3274L2.91152 5.66894C3.06721 5.35769 3.34015 5.12101 3.67031 5.01095C4.00048 4.9009 4.36084 4.92648 4.67214 5.08207L6.80589 6.14894L11.845 4.70894C11.9461 4.68003 12.0532 4.68003 12.1543 4.70894L17.1934 6.14894L19.3271 5.08207C19.6385 4.92648 19.9988 4.9009 20.329 5.01095C20.6591 5.12101 20.9321 5.35769 21.0878 5.66894L23.4175 10.3274C23.4949 10.4815 23.5411 10.6493 23.5533 10.8213C23.5655 10.9934 23.5436 11.1661 23.4887 11.3296ZM1.67214 11.0821L3.49839 11.9999L5.99964 7.00113L4.16871 6.08801C4.1242 6.0659 4.07273 6.06237 4.02562 6.07819C3.97851 6.09401 3.9396 6.12789 3.91746 6.17238L1.58777 10.8308C1.56597 10.8752 1.5626 10.9264 1.57839 10.9733C1.58572 10.9969 1.59783 11.0187 1.61396 11.0374C1.63009 11.0562 1.64989 11.0713 1.67214 11.0821ZM17.9059 14.2958L15.025 11.9886C13.2437 13.5243 10.9393 13.7511 9.04371 12.5399C8.87786 12.4344 8.73781 12.293 8.63391 12.1262C8.53001 11.9594 8.4649 11.7713 8.44339 11.576C8.42189 11.3806 8.44453 11.1829 8.50965 10.9975C8.57477 10.812 8.68071 10.6436 8.81964 10.5046L13.1059 6.34582C13.1682 6.28569 13.2436 6.24077 13.3262 6.21457L11.9996 5.83488L7.14246 7.21863L4.46777 12.5718L9.23965 15.9796L14.8271 17.3764L17.9059 14.2958ZM19.5634 12.6383L16.9018 7.31238H13.7275L9.61089 11.3061C9.59263 11.3253 9.57887 11.3483 9.57059 11.3734C9.56232 11.3985 9.55976 11.4252 9.56308 11.4514C9.56599 11.4801 9.57546 11.5077 9.59074 11.532C9.60602 11.5564 9.62671 11.577 9.65121 11.5921C10.8971 12.388 12.8518 12.6111 14.6003 10.8496C14.6981 10.7513 14.8288 10.6927 14.9672 10.6849C15.1056 10.6771 15.242 10.7208 15.3503 10.8074L18.7084 13.4999L19.5634 12.6383ZM22.4096 10.8308L20.0818 6.17238C20.0597 6.12789 20.0208 6.09401 19.9737 6.07819C19.9266 6.06237 19.8751 6.0659 19.8306 6.08801L18.0043 7.00113L20.5009 11.9999L22.3271 11.0868C22.3494 11.076 22.3692 11.0608 22.3853 11.0421C22.4015 11.0234 22.4136 11.0016 22.4209 10.978C22.4294 10.9541 22.4329 10.9288 22.4313 10.9035C22.4297 10.8782 22.423 10.8534 22.4115 10.8308H22.4096Z" fill="white"/>
</svg>
