<svg width="24" height="24" viewBox="0 0 24 24" fill="none" xmlns="http://www.w3.org/2000/svg">
<path d="M22.3027 18.5962L20.9668 7.34625C20.9278 7.02593 20.7726 6.73105 20.5307 6.51749C20.2888 6.30392 19.977 6.18651 19.6543 6.1875H16.3121V6C16.3121 4.85625 15.8577 3.75935 15.049 2.9506C14.2402 2.14185 13.1433 1.6875 11.9996 1.6875C10.8558 1.6875 9.75894 2.14185 8.95019 2.9506C8.14144 3.75935 7.68709 4.85625 7.68709 6V6.1875H4.34302C4.02034 6.18651 3.7085 6.30392 3.4666 6.51749C3.2247 6.73105 3.06954 7.02593 3.03052 7.34625L1.69459 18.5962C1.67278 18.7811 1.69053 18.9684 1.74665 19.1458C1.80278 19.3233 1.89599 19.4868 2.02011 19.6254C2.14424 19.7641 2.29643 19.8748 2.46659 19.9501C2.63675 20.0255 2.82099 20.0638 3.00709 20.0625H20.9921C21.1782 20.0638 21.3624 20.0255 21.5326 19.9501C21.7027 19.8748 21.8549 19.7641 21.9791 19.6254C22.1032 19.4868 22.1964 19.3233 22.2525 19.1458C22.3086 18.9684 22.3264 18.7811 22.3046 18.5962H22.3027ZM8.81209 6C8.81209 5.15462 9.14791 4.34387 9.74568 3.7461C10.3435 3.14832 11.1542 2.8125 11.9996 2.8125C12.845 2.8125 13.6557 3.14832 14.2535 3.7461C14.8513 4.34387 15.1871 5.15462 15.1871 6V6.1875H8.81209V6ZM21.1402 18.8719C21.1217 18.8928 21.0989 18.9096 21.0733 18.9209C21.0478 18.9322 21.02 18.9379 20.9921 18.9375H3.00709C2.97913 18.9379 2.95141 18.9322 2.92585 18.9209C2.90028 18.9096 2.87747 18.8928 2.85896 18.8719C2.8414 18.8527 2.8282 18.83 2.82027 18.8052C2.81234 18.7804 2.80987 18.7542 2.81302 18.7284L4.1499 7.47844C4.1553 7.43155 4.17818 7.38842 4.21398 7.35766C4.24978 7.3269 4.29586 7.31077 4.34302 7.3125H7.68709V9.75C7.68709 9.89918 7.74635 10.0423 7.85184 10.1477C7.95733 10.2532 8.1004 10.3125 8.24959 10.3125C8.39877 10.3125 8.54184 10.2532 8.64733 10.1477C8.75282 10.0423 8.81209 9.89918 8.81209 9.75V7.3125H15.1871V9.75C15.1871 9.89918 15.2464 10.0423 15.3518 10.1477C15.4573 10.2532 15.6004 10.3125 15.7496 10.3125C15.8988 10.3125 16.0418 10.2532 16.1473 10.1477C16.2528 10.0423 16.3121 9.89918 16.3121 9.75V7.3125H19.6562C19.7033 7.31077 19.7494 7.3269 19.7852 7.35766C19.821 7.38842 19.8439 7.43155 19.8493 7.47844L21.1861 18.7284C21.1893 18.7542 21.1868 18.7804 21.1789 18.8052C21.171 18.83 21.1578 18.8527 21.1402 18.8719Z" fill="white"/>
</svg>
