<svg width="24" height="24" viewBox="0 0 24 24" fill="none" xmlns="http://www.w3.org/2000/svg">
<path d="M15.7493 1.6875C14.8081 1.68687 13.8779 1.88884 13.0217 2.2797C12.1656 2.67056 11.4036 3.24114 10.7876 3.95267C10.1716 4.6642 9.71599 5.50001 9.45173 6.40329C9.18747 7.30657 9.12076 8.25615 9.25613 9.1875L2.69363 18.1369C2.50695 18.3891 2.41737 18.7 2.4413 19.0129C2.46524 19.3257 2.60108 19.6195 2.82394 19.8403L4.16457 21.1809C4.38551 21.4036 4.67924 21.5394 4.99202 21.5633C5.30481 21.5872 5.61576 21.4977 5.86801 21.3113L14.8174 14.7488C15.7081 14.8738 16.6151 14.8144 17.4819 14.5742C18.3488 14.334 19.157 13.9182 19.8564 13.3526C20.5558 12.7869 21.1314 12.0836 21.5476 11.2861C21.9637 10.4887 22.2115 9.61421 22.2755 8.717C22.3395 7.81978 22.2184 6.91898 21.9197 6.07054C21.621 5.22209 21.151 4.44412 20.539 3.78492C19.927 3.12572 19.186 2.59938 18.3621 2.23857C17.5381 1.87776 16.6488 1.69019 15.7493 1.6875ZM21.1868 8.25C21.1879 9.49772 20.7573 10.7074 19.968 11.6738L12.3264 4.03125C13.1235 3.38311 14.088 2.97427 15.1081 2.85214C16.1282 2.73001 17.1619 2.89961 18.0895 3.34126C19.0171 3.78291 19.8004 4.4785 20.3486 5.34735C20.8968 6.21619 21.1874 7.22266 21.1868 8.25ZM5.20238 20.3991C5.16623 20.4256 5.12175 20.4383 5.07703 20.4349C5.03231 20.4314 4.9903 20.4121 4.95863 20.3803L3.61895 19.0406C3.58718 19.009 3.56782 18.9669 3.56438 18.9222C3.56094 18.8775 3.57365 18.833 3.60019 18.7969L9.62082 10.5881C9.95202 11.4502 10.4607 12.2331 11.1138 12.8861C11.7669 13.539 12.5499 14.0475 13.4121 14.3784L5.20238 20.3991ZM10.3118 8.25C10.3112 7.00239 10.7418 5.79292 11.5305 4.82625L19.1739 12.4688C18.3763 13.1155 17.4119 13.5232 16.3922 13.6446C15.3725 13.766 14.3393 13.5962 13.4121 13.1548C12.4849 12.7135 11.7017 12.0186 11.153 11.1505C10.6043 10.2825 10.3127 9.27689 10.3118 8.25ZM10.1477 13.8516C10.2 13.9038 10.2415 13.9658 10.2698 14.0341C10.2981 14.1024 10.3127 14.1756 10.3127 14.2495C10.3127 14.3235 10.2981 14.3967 10.2698 14.4649C10.2415 14.5332 10.2 14.5953 10.1477 14.6475L9.3977 15.3975C9.34543 15.4498 9.28339 15.4912 9.21511 15.5195C9.14682 15.5478 9.07364 15.5623 8.99973 15.5623C8.92582 15.5623 8.85263 15.5478 8.78435 15.5195C8.71606 15.4912 8.65402 15.4498 8.60176 15.3975C8.5495 15.3452 8.50804 15.2832 8.47976 15.2149C8.45147 15.1466 8.43691 15.0734 8.43691 14.9995C8.43691 14.9256 8.45147 14.8524 8.47976 14.7842C8.50804 14.7159 8.5495 14.6538 8.60176 14.6016L9.35176 13.8516C9.40395 13.7991 9.466 13.7574 9.53434 13.7289C9.60268 13.7004 9.67597 13.6857 9.75 13.6857C9.82403 13.6856 9.89736 13.7001 9.96576 13.7284C10.0342 13.7567 10.0963 13.7982 10.1486 13.8506L10.1477 13.8516Z" fill="white"/>
</svg>
